<svg width="150" height="41" viewBox="0 0 150 41" fill="none" xmlns="http://www.w3.org/2000/svg">
<path fill-rule="evenodd" clip-rule="evenodd" d="M97.8337 23.8277C100.382 23.8277 102.501 21.7889 102.501 18.9454C102.501 16.1287 100.382 14.1167 97.8337 14.1167C95.2584 14.1167 93.1659 16.1287 93.1659 18.9454C93.1659 21.7889 95.2584 23.8277 97.8337 23.8277ZM97.8337 11.8632C101.884 11.8632 105.157 14.8409 105.157 18.9454C105.157 23.0767 101.884 26.0812 97.8337 26.0812C93.7829 26.0812 90.5102 23.0767 90.5102 18.9454C90.5102 14.8409 93.7829 11.8632 97.8337 11.8632ZM88.8219 12.0447C88.7064 12.0337 88.5644 12.0242 88.4177 12.0242C86.3252 12.0242 84.7424 13.5802 84.1254 15.5652H84.0717C84.0717 15.5652 84.1254 15.1629 84.1254 14.6262V13.7679C84.1254 12.6679 83.5619 12.1852 82.3817 12.1852H79.6202C79.4562 12.1852 79.3234 12.3179 79.3234 12.4817V13.9004C79.3234 14.0642 79.4562 14.1972 79.6202 14.1972H81.0134C81.3892 14.1972 81.6037 14.3849 81.6037 14.7872V23.7472H79.8614C79.6977 23.7472 79.5649 23.8802 79.5649 24.0439V25.4627C79.5649 25.6264 79.6977 25.7592 79.8614 25.7592H85.9212C86.0849 25.7592 86.2179 25.6264 86.2179 25.4627V24.0439C86.2179 23.8802 86.0849 23.7472 85.9212 23.7472H84.2059V20.1524C84.2059 17.4967 85.4399 14.5727 88.3372 14.5727C88.4964 14.5727 88.6412 14.5837 88.7599 14.5977C88.9354 14.6184 89.0882 14.4799 89.0882 14.3029V12.3399C89.0882 12.1874 88.9737 12.0592 88.8219 12.0447ZM70.5512 23.8277C72.6704 23.8277 74.4412 22.0839 74.4412 18.9989C74.4412 16.0482 72.8584 14.1434 70.6049 14.1434C68.5929 14.1434 66.6884 15.5652 66.6884 19.0259C66.6884 21.4402 67.9492 23.8277 70.5512 23.8277ZM71.1147 11.8632C74.7899 11.8632 77.0969 14.7604 77.0969 18.9722C77.0969 23.2912 74.4947 26.0812 70.9002 26.0812C67.7614 26.0812 66.6079 23.6132 66.6079 23.6132H66.5542C66.5542 23.6132 66.6347 24.0959 66.6347 24.6862V25.4627C66.6347 25.6264 66.5019 25.7592 66.3379 25.7592H64.4632C64.2994 25.7592 64.1667 25.6264 64.1667 25.4627V8.83195H62.1829C62.0192 8.83195 61.8864 8.69895 61.8864 8.5352V7.11645C61.8864 6.9527 62.0192 6.81995 62.1829 6.81995H66.4722C66.6359 6.81995 66.7687 6.9527 66.7687 7.11645V13.0972C66.7687 13.7409 66.6884 14.2239 66.6884 14.2239H66.7419C66.7419 14.2239 67.9492 11.8632 71.1147 11.8632ZM56.8142 9.4757H58.9572C59.1209 9.4757 59.2537 9.34295 59.2537 9.17895V7.11645C59.2537 6.9527 59.1209 6.81995 58.9572 6.81995H56.8142C56.6504 6.81995 56.5174 6.9527 56.5174 7.11645V9.17895C56.5174 9.34295 56.6504 9.4757 56.8142 9.4757ZM61.0227 23.7472H59.1734V12.4817C59.1734 12.3179 59.0404 12.1852 58.8767 12.1852H54.6144C54.4507 12.1852 54.3177 12.3179 54.3177 12.4817V13.9004C54.3177 14.0642 54.4507 14.1972 54.6144 14.1972H56.5712V23.7472H54.7484C54.5847 23.7472 54.4519 23.8802 54.4519 24.0439V25.4627C54.4519 25.6264 54.5847 25.7592 54.7484 25.7592H61.0227C61.1867 25.7592 61.3194 25.6264 61.3194 25.4627V24.0439C61.3194 23.8802 61.1867 23.7472 61.0227 23.7472ZM51.5954 20.5012C51.7592 20.5012 51.8919 20.6342 51.8919 20.7979V25.4627C51.8919 25.6264 51.7592 25.7592 51.5954 25.7592H38.1852C38.0214 25.7592 37.8887 25.6264 37.8887 25.4627V23.9634C37.8887 23.7997 38.0214 23.6667 38.1852 23.6667H40.2494V9.0197H38.1852C38.0214 9.0197 37.8887 8.88695 37.8887 8.72295V7.11645C37.8887 6.9527 38.0214 6.81995 38.1852 6.81995H45.0229C45.1867 6.81995 45.3194 6.9527 45.3194 7.11645V8.72295C45.3194 8.88695 45.1867 9.0197 45.0229 9.0197H42.9319V23.5594H49.5312V20.7979C49.5312 20.6342 49.6642 20.5012 49.8279 20.5012H51.5954Z" fill="#424242"/>
<mask id="mask0" mask-type="alpha" maskUnits="userSpaceOnUse" x="107" y="6" width="43" height="20">
<path d="M150 6.6322V25.7592H107.855V6.6322H150Z" fill="white"/>
</mask>
<g mask="url(#mask0)">
<path fill-rule="evenodd" clip-rule="evenodd" d="M121.94 6.67995C121.721 6.6577 121.381 6.6322 120.974 6.6322C119.364 6.6322 116.091 7.1687 116.091 11.5145V12.1852H114.134C113.971 12.1852 113.838 12.318 113.838 12.482V13.9005C113.838 14.0645 113.971 14.1972 114.134 14.1972H116.091V23.7472H114.269C114.105 23.7472 113.972 23.8802 113.972 24.044V25.4627C113.972 25.6265 114.105 25.7592 114.269 25.7592H120.892C121.055 25.7592 121.188 25.6265 121.188 25.4627V24.044C121.188 23.8802 121.055 23.7472 120.892 23.7472H118.693V14.1972H121.67C121.833 14.1972 121.966 14.0645 121.966 13.9005V12.482C121.966 12.318 121.833 12.1852 121.67 12.1852H118.693V11.461C118.693 9.0197 120.383 8.7782 121.242 8.7782C121.505 8.7782 121.719 8.79295 121.878 8.8097C122.054 8.8282 122.208 8.69195 122.208 8.51495V6.9752C122.208 6.82245 122.092 6.69545 121.94 6.67995ZM110.349 22.9425H108.152C107.988 22.9425 107.855 23.0755 107.855 23.2392V25.4627C107.855 25.6265 107.988 25.7592 108.152 25.7592H110.349C110.513 25.7592 110.646 25.6265 110.646 25.4627V23.2392C110.646 23.0755 110.513 22.9425 110.349 22.9425ZM149.703 23.7472H147.854V17.0677C147.854 13.607 146.432 11.8632 143.427 11.8632C141.201 11.8632 139.323 13.3655 138.572 15.0557H138.518C138.062 12.856 136.721 11.8632 134.548 11.8632C132.348 11.8632 130.39 13.5535 129.719 15.163H129.665C129.665 15.163 129.746 14.8142 129.746 14.385V13.6875C129.746 12.695 129.182 12.1852 128.029 12.1852H125.267C125.104 12.1852 124.971 12.318 124.971 12.482V13.9005C124.971 14.0645 125.104 14.1972 125.267 14.1972H126.634C126.96 14.1972 127.224 14.4615 127.224 14.7875V23.7472H125.402C125.238 23.7472 125.105 23.8802 125.105 24.044V25.4627C125.105 25.6265 125.238 25.7592 125.402 25.7592H131.676C131.84 25.7592 131.972 25.6265 131.972 25.4627V24.044C131.972 23.8802 131.84 23.7472 131.676 23.7472H129.826V19.616C129.826 16.9602 131.329 14.224 133.904 14.224C135.996 14.224 136.265 15.8605 136.265 17.631V25.4627C136.265 25.6265 136.398 25.7592 136.561 25.7592H140.689C140.853 25.7592 140.986 25.6265 140.986 25.4627V24.044C140.986 23.8802 140.853 23.7472 140.689 23.7472H138.867V19.5087C138.867 16.8262 140.315 14.224 142.864 14.224C144.903 14.224 145.252 15.7262 145.252 17.631V25.4627C145.252 25.6265 145.384 25.7592 145.548 25.7592H149.703C149.867 25.7592 150 25.6265 150 25.4627V24.044C150 23.8802 149.867 23.7472 149.703 23.7472Z" fill="#4CBEBC"/>
</g>
<mask id="mask1" mask-type="alpha" maskUnits="userSpaceOnUse" x="0" y="0" width="25" height="33">
<path d="M24.3152 0.465942H0V32.4034H24.3152V0.465942Z" fill="white"/>
</mask>
<g mask="url(#mask1)">
<path fill-rule="evenodd" clip-rule="evenodd" d="M7.8435 10.6167C7.7555 10.6989 7.75325 10.8357 7.83825 10.9209L9.032 12.1147C9.11025 12.1929 9.24125 12.1957 9.323 12.1212C10.0715 11.4407 11.066 11.0257 12.1573 11.0257C13.2488 11.0257 14.2433 11.4407 14.9918 12.1212C15.0735 12.1957 15.2043 12.1929 15.2828 12.1147L16.4763 10.9209C16.5615 10.8357 16.5593 10.6989 16.4713 10.6167C15.3403 9.5607 13.823 8.9137 12.1573 8.9137C10.4918 8.9137 8.9745 9.5607 7.8435 10.6167ZM23.8952 6.4497L15.6352 14.7097C13.7222 16.6227 10.5923 16.6227 8.6795 14.7097L0.41975 6.4497C0.26475 6.2947 0 6.40445 0 6.6237V21.2699C0 21.8302 0.324 22.6127 0.72025 23.0089L8.6795 30.9684C10.5923 32.8814 13.7222 32.8814 15.6352 30.9687L23.5947 23.0089C23.991 22.6127 24.3152 21.8302 24.3152 21.2699V6.6237C24.3152 6.40445 24.0502 6.2947 23.8952 6.4497ZM18.2685 9.1287L19.463 7.9342C19.5475 7.8497 19.545 7.71395 19.4587 7.6312C17.562 5.81045 14.988 4.6897 12.1573 4.6897C9.3265 4.6897 6.75275 5.81045 4.856 7.6312C4.76975 7.71395 4.76725 7.8497 4.85175 7.9342L6.046 9.1287C6.12575 9.2082 6.25825 9.2107 6.33975 9.1332C7.85475 7.6892 9.90425 6.8017 12.1573 6.8017C14.4103 6.8017 16.46 7.6892 17.975 9.1332C18.0562 9.2107 18.189 9.2082 18.2685 9.1287ZM3.06 6.14245C3.14025 6.2227 3.2735 6.22495 3.355 6.14595C5.63525 3.9382 8.74025 2.5777 12.1573 2.5777C15.5743 2.5777 18.6795 3.9382 20.9597 6.14595C21.0412 6.22495 21.1745 6.2227 21.2547 6.14245L22.4487 4.94845C22.5315 4.8657 22.5317 4.7302 22.4477 4.64845C19.7855 2.0612 16.1543 0.465698 12.1573 0.465698C8.1605 0.465698 4.52925 2.0612 1.867 4.64845C1.783 4.72995 1.783 4.8657 1.866 4.94845L3.06 6.14245Z" fill="#4CBEBC"/>
</g>
<path fill-rule="evenodd" clip-rule="evenodd" d="M43.4747 37.1679L42.2394 33.7797C42.1452 33.5092 42.1099 33.2504 42.1099 33.2504H42.0747C42.0747 33.2504 42.0512 33.5092 41.9569 33.7797L40.6982 37.1679H43.4747ZM38.0039 39.9917H38.8512L41.6394 32.4034H42.5452L45.3334 39.9917H46.1804V40.6739H43.5334V39.9917H44.4864L43.6982 37.8619H40.4747L39.6982 39.9917H40.6512V40.6739H38.0039V39.9917Z" fill="#424242"/>
<path fill-rule="evenodd" clip-rule="evenodd" d="M47.3791 35.4151H46.3203V34.7561H48.1791V38.3211C48.1791 39.2501 48.3203 40.0739 49.4731 40.0739C50.8026 40.0739 51.6496 38.8504 51.6496 37.5681V35.4151H50.5908V34.7561H52.4498V39.7681C52.4498 39.9446 52.5438 40.0269 52.7086 40.0269H53.3791V40.6739H52.3791C51.8851 40.6739 51.6733 40.4621 51.6733 40.0149V39.7211C51.6733 39.4856 51.6851 39.2976 51.6851 39.2976H51.6616C51.5086 39.7444 50.7791 40.8149 49.3203 40.8149C47.9556 40.8149 47.3791 40.0621 47.3791 38.5209V35.4151Z" fill="#424242"/>
<mask id="mask2" mask-type="alpha" maskUnits="userSpaceOnUse" x="54" y="32" width="7" height="9">
<path d="M60.6497 40.8149H54.3438V32.4032H60.6497V40.8149Z" fill="white"/>
</mask>
<g mask="url(#mask2)">
<path fill-rule="evenodd" clip-rule="evenodd" d="M57.038 40.0974C58.0262 40.0974 58.9555 39.3914 58.9555 37.7209C58.9555 36.5089 58.3437 35.3444 57.085 35.3444C56.0262 35.3444 55.1672 36.2149 55.1672 37.7209C55.1672 39.1679 55.932 40.0974 57.038 40.0974ZM57.0145 34.6152C58.4262 34.6152 58.9437 35.7679 58.9437 35.7679H58.9672C58.9672 35.7679 58.932 35.5679 58.932 35.3092V33.0622H57.8732V32.4032H59.7322V39.7562C59.7322 39.9327 59.8263 40.0149 59.991 40.0149H60.6497V40.6739H59.6732C59.1675 40.6739 58.9672 40.4502 58.9672 40.0267V39.9209C58.9672 39.6854 59.0145 39.5562 59.0145 39.5562H58.991C58.991 39.5562 58.485 40.8149 56.9085 40.8149C55.3202 40.8149 54.3438 39.5444 54.3438 37.7209C54.3438 35.8387 55.438 34.6152 57.0145 34.6152Z" fill="#424242"/>
</g>
<mask id="mask3" mask-type="alpha" maskUnits="userSpaceOnUse" x="0" y="0" width="150" height="41">
<path d="M0 40.8149H150V0.465942H0V40.8149Z" fill="white"/>
</mask>
<g mask="url(#mask3)">
<path fill-rule="evenodd" clip-rule="evenodd" d="M62.541 33.4034H63.447V32.4034H62.541V33.4034ZM61.588 40.0149H62.588V35.4152H61.5293V34.7562H63.388V40.0149H64.388V40.6739H61.588V40.0149Z" fill="#424242"/>
<path fill-rule="evenodd" clip-rule="evenodd" d="M68.3404 40.0975C69.6109 40.0975 70.6464 39.0622 70.6464 37.6857C70.6464 36.3442 69.6109 35.3327 68.3404 35.3327C67.0817 35.3327 66.0464 36.3442 66.0464 37.6857C66.0464 39.0622 67.0817 40.0975 68.3404 40.0975ZM68.3404 34.6152C70.0699 34.6152 71.4699 35.9327 71.4699 37.6857C71.4699 39.4737 70.0699 40.815 68.3404 40.815C66.6227 40.815 65.2227 39.4737 65.2227 37.6857C65.2227 35.9327 66.6227 34.6152 68.3404 34.6152Z" fill="#424242"/>
<path fill-rule="evenodd" clip-rule="evenodd" d="M75.7158 40.0975C76.7628 40.0975 77.6333 39.2267 77.6333 37.7209C77.6333 36.2739 76.8568 35.3444 75.751 35.3444C74.7628 35.3444 73.8335 36.0502 73.8335 37.7327C73.8335 38.9209 74.457 40.0975 75.7158 40.0975ZM73.057 33.0622H71.998V32.4032H73.857V35.321C73.857 35.6032 73.8215 35.8149 73.8215 35.8149H73.845C73.845 35.8149 74.3628 34.6152 75.8688 34.6152C77.457 34.6152 78.445 35.8857 78.445 37.7209C78.445 39.5914 77.3275 40.815 75.7745 40.815C74.351 40.815 73.8215 39.6032 73.8215 39.6032H73.7981C73.7981 39.6032 73.8335 39.815 73.8335 40.0975V40.6739H73.057V33.0622Z" fill="#424242"/>
<path fill-rule="evenodd" clip-rule="evenodd" d="M82.6568 40.0975C83.9276 40.0975 84.9626 39.0622 84.9626 37.6857C84.9626 36.3442 83.9276 35.3327 82.6568 35.3327C81.3981 35.3327 80.3628 36.3442 80.3628 37.6857C80.3628 39.0622 81.3981 40.0975 82.6568 40.0975ZM82.6568 34.6152C84.3863 34.6152 85.7863 35.9327 85.7863 37.6857C85.7863 39.4737 84.3863 40.815 82.6568 40.815C80.9391 40.815 79.5391 39.4737 79.5391 37.6857C79.5391 35.9327 80.9391 34.6152 82.6568 34.6152Z" fill="#424242"/>
<path fill-rule="evenodd" clip-rule="evenodd" d="M89.9595 40.0975C91.2303 40.0975 92.2653 39.0622 92.2653 37.6857C92.2653 36.3442 91.2303 35.3327 89.9595 35.3327C88.7008 35.3327 87.6655 36.3442 87.6655 37.6857C87.6655 39.0622 88.7008 40.0975 89.9595 40.0975ZM89.9595 34.6152C91.689 34.6152 93.0891 35.9327 93.0891 37.6857C93.0891 39.4737 91.689 40.815 89.9595 40.815C88.2418 40.815 86.8418 39.4737 86.8418 37.6857C86.8418 35.9327 88.2418 34.6152 89.9595 34.6152Z" fill="#424242"/>
<path fill-rule="evenodd" clip-rule="evenodd" d="M93.9237 40.0149H94.924V33.0622H93.8652V32.4032H95.724V37.0619H96.6532L98.0532 35.4152H97.206V34.7562H99.7472V35.4152H98.9237L97.3005 37.2974V37.3207C97.312 37.3207 97.4767 37.3915 97.712 37.7917L98.8885 39.7679C99.0062 39.9679 99.1002 40.0149 99.4297 40.0149H99.8297V40.6739H99.171C98.5827 40.6739 98.4297 40.5679 98.1475 40.0857L96.8885 37.9564C96.7475 37.7442 96.5945 37.7092 96.312 37.7092H95.724V40.0149H96.665V40.6739H93.9237V40.0149Z" fill="#424242"/>
<path fill-rule="evenodd" clip-rule="evenodd" d="M100.688 38.8385H101.417V39.262C101.417 39.862 102.276 40.1207 102.958 40.1207C103.711 40.1207 104.346 39.7912 104.346 39.1915C104.346 38.509 103.593 38.274 102.746 37.9562C101.852 37.6267 100.911 37.2267 100.911 36.1915C100.911 35.109 101.97 34.615 102.958 34.615C103.758 34.615 104.923 34.956 104.923 35.768V36.4505H104.194V36.015C104.194 35.5797 103.605 35.3092 102.982 35.3092C102.323 35.3092 101.735 35.5912 101.735 36.168C101.735 36.815 102.452 37.0857 103.229 37.3677C104.147 37.6972 105.158 38.0855 105.158 39.1442C105.158 40.1677 104.24 40.815 102.923 40.815C101.829 40.815 100.688 40.321 100.688 39.415V38.8385Z" fill="#424242"/>
</g>
</svg>
