<?xml version="1.0" encoding="utf-8"?>
<!-- Generator: Adobe Illustrator 17.0.1, SVG Export Plug-In . SVG Version: 6.00 Build 0)  -->
<!DOCTYPE svg PUBLIC "-//W3C//DTD SVG 1.1//EN" "http://www.w3.org/Graphics/SVG/1.1/DTD/svg11.dtd">
<svg version="1.1" id="Layer_1" xmlns="http://www.w3.org/2000/svg" xmlns:xlink="http://www.w3.org/1999/xlink" x="0px" y="0px"
	 width="352px" height="60px" viewBox="0 0 352 60" enable-background="new 0 0 352 60" xml:space="preserve">
<path fill="#FFFFFF" d="M65.255,22.213l-1.911,5.369l2.53,0.439v0.878h-6.453v-0.878l2.193-0.439l6.738-17.086h1.316l7.098,17.086
	l2.193,0.439v0.878H71.5v-0.878l2.53-0.439l-2.219-5.369H65.255z M65.771,20.924h5.498l-2.865-6.942L65.771,20.924z"/>
<path fill="#FFFFFF" d="M81.579,28.021l2.53-0.439V12.198l-2.53-0.439v-0.878h7.589v0.878l-2.53,0.439v15.127h6.556l1.497-3.485
	h0.878l-1.161,5.059H81.579C81.579,28.9,81.579,28.021,81.579,28.021z"/>
<path fill="#FFFFFF" d="M116.357,15.787h-0.905c0.028-2.219-1.781-4.131-6.476-4.131c-5.009,0-7.383,2.53-7.383,7.253
	c0,5.551,3.613,9.397,9.189,9.397c0.928,0,1.858-0.182,2.787-0.31v-4.259l-2.502-0.439V22.42h7.303v0.878l-2.401,0.439v3.46h1.523
	v0.878c-2.426,0.567-4.492,1.214-7.614,1.214c-6.169,0-11.021-3.072-11.021-9.525c0-4.335,2.579-9.266,10.4-9.266
	c1.755,0,5.291,0.592,6.84,0.799L116.357,15.787z"/>
<path fill="#FFFFFF" d="M140.681,20.536c0,5.162-3.639,8.751-9.215,8.751c-6.583,0-9.758-3.978-9.758-9.165
	c0-5.883,3.46-9.626,9.112-9.626C137.402,10.496,140.681,14.625,140.681,20.536z M131.595,28.307c4.802,0,6.351-3.873,6.351-8.055
	c0-5.392-3.485-8.773-7.228-8.773c-3.871,0-6.272,2.762-6.272,7.46C124.444,24.639,127.102,28.307,131.595,28.307z"/>
<path fill="#FFFFFF" d="M146.655,27.583V12.198l-2.53-0.439v-0.878h4.723l12.673,14.042V12.198l-2.53-0.439v-0.878h6.555v0.878
	l-2.53,0.439v16.854h-1.288c-1.73-1.935-10.739-11.898-13.579-14.996v13.525l2.633,0.439v0.878h-6.658v-0.878L146.655,27.583z"/>
<path fill="#FFFFFF" d="M178.288,29.287c-6.325,0-9.475-4.131-9.475-9.758c0-5.73,4.053-9.034,9.422-9.034
	c6.222,0,9.497,4.517,9.497,9.833c0,4.466-2.401,7.203-5.755,8.441c2.195,1.781,3.536,2.607,6.247,3.147l-0.335,0.699
	c-3.432,0.129-6.169-1.188-8.801-3.329L178.288,29.287L178.288,29.287L178.288,29.287z M179.887,26.936l1.059,1.059
	c3.226-1.445,4.05-4.776,4.05-7.51c0-3.303-1.831-9.009-7.122-9.009c-4.156,0-6.326,3.072-6.326,7.46
	c0,4.464,1.884,9.395,7.047,9.341L179.887,26.936z"/>
<path fill="#FFFFFF" d="M208.91,12.198v8.648c0,5.034-2.063,8.517-7.871,8.517c-5.42,0-7.795-2.865-7.717-6.84V12.198l-2.53-0.439
	v-0.878h7.589v0.878l-2.53,0.439v9.369c-0.078,3.846,1.445,6.375,5.395,6.375c1.288,0,3.354-0.49,4.592-2.012
	c1.009-1.214,1.009-3.485,1.009-4.878v-8.854l-2.53-0.439v-0.878h7.122v0.878L208.91,12.198z"/>
<path fill="#FFFFFF" d="M218.73,12.198v15.384l2.53,0.439v0.878h-7.589v-0.878l2.53-0.439V12.198l-2.53-0.439v-0.878h7.589v0.878
	L218.73,12.198z"/>
<path fill="#FFFFFF" d="M226.506,27.583V12.198l-2.53-0.439v-0.878h4.723l12.673,14.042V12.198l-2.53-0.439v-0.878h6.555v0.878
	l-2.53,0.439v16.854h-1.288c-1.73-1.935-10.739-11.898-13.579-14.996v13.525l2.633,0.439v0.878h-6.658v-0.878L226.506,27.583z"/>
<path fill="#FFFFFF" d="M256.517,28.899v-0.878l2.53-0.439V12.198l-2.53-0.439v-0.878h7.226c2.789,0,5.73,0.492,5.73,3.95
	c0,2.35-1.599,3.768-3.639,4.545v0.051h0.053c2.116-0.206,4.827,1.291,4.827,4.466c0,3.044-2.298,5.006-5.783,5.006L256.517,28.899
	L256.517,28.899L256.517,28.899z M261.576,19.141c0.49,0.028,1.082-0.025,1.677-0.051c2.505-0.104,3.639-1.239,3.639-3.614
	c0-2.736-1.652-3.717-3.899-3.717c-0.49,0-0.978,0.078-1.417,0.104L261.576,19.141L261.576,19.141L261.576,19.141z M261.576,27.504
	c0.878,0.206,1.884,0.518,2.89,0.518c2.505,0,3.664-1.239,3.664-3.717c0-3.097-2.505-4.335-5.266-4.335
	c-0.464,0-0.928,0.078-1.288,0.154V27.504L261.576,27.504z"/>
<path fill="#FFFFFF" d="M293.227,20.536c0,5.162-3.639,8.751-9.215,8.751c-6.582,0-9.758-3.978-9.758-9.165
	c0-5.883,3.46-9.626,9.111-9.626C289.948,10.496,293.227,14.625,293.227,20.536z M284.14,28.307c4.802,0,6.351-3.873,6.351-8.055
	c0-5.392-3.485-8.773-7.228-8.773c-3.871,0-6.272,2.762-6.272,7.46C276.99,24.639,279.648,28.307,284.14,28.307z"/>
<path fill="#FFFFFF" d="M316.058,20.536c0,5.162-3.639,8.751-9.215,8.751c-6.582,0-9.758-3.978-9.758-9.165
	c0-5.883,3.46-9.626,9.111-9.626C312.78,10.496,316.058,14.625,316.058,20.536z M306.972,28.307c4.802,0,6.351-3.873,6.351-8.055
	c0-5.392-3.485-8.773-7.228-8.773c-3.871,0-6.272,2.762-6.272,7.46C299.822,24.639,302.48,28.307,306.972,28.307z"/>
<path fill="#FFFFFF" d="M332.769,12.198l-4.799,7.177l5.29,6.116c1.574,1.834,2.038,2.479,3.742,2.53v0.878h-7.356v-0.878
	l2.169-0.439l-5.937-6.918h-1.213v6.918l2.53,0.439v0.878h-7.589v-0.878l2.53-0.439V12.198l-2.53-0.439v-0.878h7.589v0.878
	l-2.53,0.439v7.434c1.316,0.025,1.574-0.104,1.935-0.646l4.517-6.789l-2.244-0.439v-0.878h6.607v0.878L332.769,12.198z"/>
<path fill="#FFFFFF" d="M350.511,15.063l-0.853,0.131c-0.411-1.912-1.263-3.538-3.458-3.538c-1.909,0-3.278,1.188-3.278,3.149
	c0,4.93,8.62,3.717,8.62,8.931c0,3.254-2.141,5.551-5.935,5.551c-1.755,0-4.002-0.414-5.293-1.344l-0.283-4.285l0.853-0.204
	c0.206,1.367,0.515,2.477,0.878,3.201c0.567,1.082,2.579,1.652,3.689,1.652c2.144,0,3.768-1.059,3.768-3.331
	c0-4.413-8.62-2.993-8.62-9.548c0-2.736,2.169-4.93,5.783-4.93c1.263,0,2.53,0.439,3.768,0.567L350.511,15.063z"/>
<path fill="#FFFFFF" d="M14.531,28.135L9.945,41.023l6.073,1.054v2.109H0.526v-2.109l5.74-1.054L22.35,0h1.866l17.04,41.023
	l6.18,1.054v2.109H29.527v-2.109l6.162-1.054L30.36,28.135H14.531z M15.768,25.035h13.292L22.182,8.367L15.768,25.035z"/>
<path fill="#FFFFFF" d="M47.241,56.582l-0.539-0.295c-0.154-0.152-0.4-0.502-0.448-0.573c-0.109-0.18-0.162-0.31-0.162-0.31
	c-0.256-0.44-0.261-0.502-0.261-0.502c-0.627-1.183-0.651-2.782-0.651-2.782c0.024-1.46,0.351-2.142,0.351-2.142
	c0.185-0.563,0.238-0.686,0.238-0.686c0.069-0.152,0.192-0.355,0.218-0.413c0.054-0.118,0.191-0.316,0.191-0.316l0.09-0.143
	l0.156-0.176l0.182-0.197l0.203-0.121l0.203-0.089l0.243-0.119l0.285-0.183l0.074-0.227l0.021-0.342l-0.151-0.272l-0.169-0.097
	l-0.214-0.045H6.115c-0.806-0.024-1.129,0.491-1.129,0.491l-0.116-0.166c-0.651-0.676-1.69-0.231-1.69-0.231
	c-0.722,0.235-1.439,0.891-1.439,0.891c-1.474,1.254-1.726,3.815-1.726,3.815c-0.163,2.993,1.176,4.569,1.176,4.569
	c0.648,0.838,1.165,1.214,1.165,1.214c0.887,0.702,1.591,0.575,1.591,0.575c0.899,0.047,1.087-0.584,1.087-0.584
	c0.277,0.584,1.015,0.561,1.015,0.561h41.09l0.226,0.01l0.206-0.183l0.063-0.365l-0.079-0.318L47.241,56.582z M3.924,48.252
	c0,0,0.1-0.102,0.347-0.152c0,0,0.343-0.124,0.785-0.075h39.721h0.509l0.262,0.024c0,0,0.178,0.18-0.012,0.513
	c-0.102,0.178-0.086,0.191-0.297,0.34c0,0,0.05-0.001-0.278,0.086c-0.197,0.052-0.607,0.07-0.976,0.07H3.894H3.316l0.07-0.231
	c0,0,0.088-0.152,0.134-0.237C3.618,48.406,3.765,48.31,3.924,48.252z M2.661,52.36h0.095h0.117h39.772
	c0.458,0,1.011-0.053,1.209,0.016c0.23,0.078,0.243,0.139,0.243,0.139c0.138,0.122,0.235,0.31,0.238,0.435
	c0.022,0.485-0.349,0.441-0.349,0.441h-0.293h-0.207H3.938c-0.513,0.025-0.994-0.006-0.994-0.006c-0.245-0.049-0.3-0.129-0.3-0.129
	c-0.096-0.034-0.12-0.088-0.2-0.203c-0.073-0.104-0.064-0.211-0.085-0.309C2.293,52.447,2.661,52.36,2.661,52.36z M2.408,51.516
	c0.022-0.097,0.013-0.203,0.085-0.308c0.08-0.115,0.104-0.17,0.201-0.204c0,0,0.055-0.079,0.3-0.129c0,0,0.483-0.03,0.995-0.005
	h39.475h0.115h0.435c0,0,0.358,0.063,0.336,0.449c-0.01,0.211-0.064,0.281-0.131,0.383c0,0-0.068,0.161-0.463,0.201
	c-0.19,0.019-0.75,0.001-1.065,0.001H2.922H2.805H2.71C2.71,51.902,2.342,51.815,2.408,51.516z M2.938,53.766h0.279h39.954
	c0.382,0,0.615,0.011,0.816,0.054c0.4,0.086,0.553,0.265,0.553,0.265c0.095,0.114,0.149,0.231,0.193,0.376
	c0.078,0.26-0.209,0.336-0.209,0.336h-0.399H4.312c-0.304,0.003-0.927,0.019-0.927,0.019c-0.223-0.003-0.347-0.129-0.347-0.129
	c-0.068-0.05-0.159-0.201-0.212-0.342C2.674,53.936,2.938,53.766,2.938,53.766z M44.696,50.062c-0.014,0.03-0.325,0.298-0.361,0.325
	c0,0-0.107,0.062-0.509,0.08c-0.196,0.008-0.302,0.03-0.629,0.03H3.246H2.931c0,0-0.265-0.17-0.113-0.581
	c0.054-0.141,0.144-0.293,0.212-0.343c0,0,0.124-0.127,0.345-0.128c0,0,0.589,0.015,0.891,0.017h39.7h0.162h0.237
	C44.365,49.463,44.946,49.439,44.696,50.062z M3.252,56.827l-0.4-0.313l-0.367-0.351c0,0-0.28-0.344-0.483-0.615
	c-0.219-0.293-0.421-0.674-0.542-0.948c0,0-0.194-0.398-0.371-1.179c0,0-0.105-0.455-0.119-1.206
	c-0.016-0.828,0.098-1.081,0.211-1.695c0,0,0.257-0.992,0.487-1.346c0,0,0.12-0.35,0.592-0.941c0.137-0.17,0.272-0.33,0.496-0.531
	c0,0,0.252-0.188,0.351-0.253c0.251-0.17,0.257-0.133,0.391-0.174c0,0,0.086-0.019,0.2,0.133c0,0-0.033,0.216-0.178,0.277
	c0,0,0.005,0.024-0.228,0.237c0,0-0.466,0.469-1,1.582c0,0-0.29,0.758-0.448,1.893c0,0-0.157,0.844,0.067,1.979
	c0,0,0.156,0.74,0.49,1.429c0,0,0.144,0.375,0.443,0.758c0.09,0.118,0.178,0.28,0.315,0.447c0,0,0.06,0.088,0.206,0.239l0.246,0.232
	c0,0,0.132,0.152,0.087,0.285C3.692,56.769,3.718,57.006,3.252,56.827z M45.338,56.237h-0.142h-0.256H5.378
	c-0.441,0.047-1.041-0.076-1.041-0.076c-0.245-0.049-0.347-0.152-0.347-0.152c-0.157-0.058-0.306-0.157-0.405-0.34
	c-0.046-0.083-0.134-0.234-0.134-0.234l-0.07-0.232h0.582h40.093c0.254,0,0.234,0.031,0.404,0.027
	c0.394-0.006,0.435,0.037,0.435,0.037c0.409,0.142,0.503,0.364,0.556,0.474C45.616,56.07,45.338,56.237,45.338,56.237z"/>
<path fill="#FFFFFF" d="M100.822,56.232l0.088-0.515c0.533-0.224,1.055-0.367,1.563-0.426l2.22-10.534
	c-0.237-0.047-0.468-0.109-0.693-0.187c-0.225-0.077-0.45-0.162-0.674-0.258l0.124-0.515h1.884c0.438,0,0.876-0.018,1.315-0.053
	c0.437-0.036,0.988-0.053,1.652-0.053c0.473,0,0.924,0.041,1.35,0.125c0.427,0.082,0.799,0.212,1.119,0.39
	c0.32,0.178,0.574,0.413,0.763,0.702c0.189,0.29,0.285,0.648,0.285,1.075c0,0.416-0.063,0.809-0.187,1.182
	c-0.124,0.372-0.318,0.717-0.578,1.03c-0.261,0.315-0.59,0.59-0.986,0.826c-0.397,0.237-0.861,0.426-1.394,0.568v0.071
	c0.272,0.024,0.551,0.082,0.835,0.178c0.285,0.094,0.542,0.234,0.773,0.418c0.231,0.183,0.418,0.415,0.559,0.693
	c0.142,0.278,0.213,0.607,0.213,0.986c0,0.628-0.119,1.208-0.355,1.741c-0.237,0.532-0.59,0.997-1.057,1.394
	c-0.467,0.397-1.057,0.707-1.768,0.932c-0.711,0.226-1.541,0.337-2.487,0.337c-0.415,0-0.873-0.018-1.377-0.053
	c-0.503-0.036-0.997-0.053-1.483-0.053h-1.705v0.001H100.822z M105.724,55.415c0.485,0.012,0.948-0.053,1.385-0.196
	c0.437-0.142,0.823-0.349,1.154-0.621c0.331-0.272,0.595-0.607,0.791-1.004c0.196-0.397,0.293-0.85,0.293-1.359
	c0-0.392-0.068-0.712-0.205-0.96c-0.136-0.249-0.331-0.438-0.587-0.568c-0.255-0.13-0.561-0.219-0.917-0.267
	c-0.356-0.047-0.753-0.071-1.192-0.071h-1.352l-1.022,4.903c0.154,0.047,0.344,0.087,0.569,0.116
	C104.865,55.419,105.227,55.426,105.724,55.415z M106.179,49.446c0.201,0,0.441-0.009,0.721-0.026
	c0.278-0.019,0.519-0.039,0.721-0.063c0.937-0.331,1.587-0.779,1.949-1.341c0.362-0.561,0.542-1.175,0.542-1.838
	c0-0.462-0.166-0.838-0.5-1.129c-0.333-0.29-0.892-0.435-1.677-0.435c-0.381,0-0.705,0.009-0.972,0.026
	c-0.267,0.019-0.491,0.039-0.669,0.063l-1.004,4.743L106.179,49.446L106.179,49.446L106.179,49.446z"/>
<path fill="#FFFFFF" d="M112.759,52.928c0-0.628,0.098-1.283,0.293-1.964c0.194-0.681,0.492-1.306,0.893-1.873
	c0.4-0.569,0.901-1.036,1.503-1.404c0.601-0.367,1.302-0.551,2.104-0.551c0.919,0,1.612,0.285,2.078,0.853
	c0.466,0.568,0.699,1.41,0.699,2.522c0,0.782-0.112,1.531-0.336,2.247c-0.224,0.717-0.536,1.348-0.937,1.891
	c-0.4,0.543-0.884,0.981-1.449,1.306c-0.566,0.326-1.191,0.489-1.874,0.489c-0.908,0-1.63-0.294-2.167-0.879
	C113.027,54.979,112.759,54.101,112.759,52.928z M117.217,47.918c-0.58,0.012-1.054,0.201-1.421,0.566
	c-0.367,0.365-0.658,0.82-0.871,1.362c-0.213,0.542-0.361,1.127-0.444,1.751c-0.083,0.625-0.124,1.196-0.124,1.715
	c0,0.695,0.154,1.261,0.462,1.697c0.307,0.437,0.722,0.655,1.243,0.655c0.415,0,0.784-0.156,1.111-0.468
	c0.326-0.313,0.604-0.725,0.835-1.239c0.231-0.513,0.408-1.094,0.533-1.743c0.125-0.648,0.187-1.302,0.187-1.962
	c0-0.695-0.122-1.255-0.364-1.679C118.12,48.149,117.738,47.93,117.217,47.918z"/>
<path fill="#FFFFFF" d="M121.906,52.928c0-0.628,0.098-1.283,0.293-1.964c0.194-0.681,0.492-1.306,0.893-1.873
	c0.4-0.569,0.901-1.036,1.503-1.404c0.601-0.367,1.302-0.551,2.104-0.551c0.919,0,1.612,0.285,2.078,0.853
	c0.466,0.568,0.699,1.41,0.699,2.522c0,0.782-0.112,1.531-0.336,2.247c-0.224,0.717-0.536,1.348-0.937,1.891
	c-0.4,0.543-0.884,0.981-1.449,1.306c-0.566,0.326-1.191,0.489-1.874,0.489c-0.908,0-1.63-0.294-2.167-0.879
	C122.174,54.979,121.906,54.101,121.906,52.928z M126.365,47.918c-0.58,0.012-1.054,0.201-1.421,0.566
	c-0.367,0.365-0.658,0.82-0.871,1.362c-0.213,0.542-0.361,1.127-0.444,1.751c-0.083,0.625-0.124,1.196-0.124,1.715
	c0,0.695,0.154,1.261,0.462,1.697c0.307,0.437,0.722,0.655,1.243,0.655c0.415,0,0.784-0.156,1.111-0.468
	c0.326-0.313,0.604-0.725,0.835-1.239c0.231-0.513,0.408-1.094,0.533-1.743c0.125-0.648,0.187-1.302,0.187-1.962
	c0-0.695-0.122-1.255-0.364-1.679C127.267,48.149,126.886,47.93,126.365,47.918z"/>
<path fill="#FFFFFF" d="M135.638,55.433c-0.379-0.639-0.699-1.247-0.96-1.821c-0.261-0.573-0.509-1.111-0.746-1.607l-0.639-0.178
	l-0.835,4.405h-1.528l2.416-12.115l-1.244-0.16v-0.444c0.343-0.154,0.761-0.293,1.252-0.418c0.491-0.125,0.945-0.198,1.359-0.222
	l0.373,0.196l-1.67,8.297h0.515c0.249-0.154,0.506-0.344,0.772-0.569c0.267-0.224,0.521-0.456,0.763-0.692
	c0.242-0.237,0.459-0.465,0.648-0.684c0.19-0.219,0.338-0.405,0.444-0.559c0.011-0.084,0.02-0.196,0.027-0.338
	c0.005-0.142,0.005-0.286,0-0.435c-0.006-0.149-0.012-0.29-0.018-0.426c-0.006-0.137-0.015-0.239-0.027-0.311
	c0.438-0.154,0.864-0.231,1.279-0.231c0.427,0,0.782,0.077,1.065,0.231c-0.155,0.39-0.391,0.782-0.711,1.173
	c-0.319,0.392-0.663,0.756-1.03,1.093c-0.367,0.337-0.728,0.646-1.084,0.924c-0.355,0.278-0.639,0.495-0.853,0.648
	c0.083,0.226,0.216,0.518,0.4,0.879c0.183,0.361,0.385,0.737,0.604,1.127c0.219,0.392,0.45,0.769,0.693,1.137
	c0.242,0.367,0.464,0.669,0.666,0.905h1.119V55.7c-0.237,0.19-0.495,0.344-0.773,0.462c-0.277,0.119-0.571,0.178-0.879,0.178
	c-0.285,0-0.538-0.065-0.763-0.196C136.052,56.013,135.838,55.777,135.638,55.433z"/>
<path fill="#FFFFFF" d="M143.506,54.126c-0.012-0.283-0.092-0.527-0.24-0.733c-0.147-0.206-0.337-0.403-0.568-0.592
	c-0.231-0.188-0.477-0.377-0.737-0.566c-0.261-0.19-0.506-0.4-0.737-0.631c-0.231-0.231-0.421-0.497-0.568-0.799
	c-0.148-0.303-0.222-0.666-0.222-1.093s0.083-0.799,0.249-1.119c0.165-0.32,0.394-0.587,0.684-0.799
	c0.29-0.214,0.639-0.376,1.049-0.489c0.408-0.112,0.855-0.169,1.341-0.169c0.307,0,0.654,0.027,1.039,0.08
	c0.385,0.053,0.749,0.18,1.092,0.382c0,0.132-0.024,0.283-0.071,0.454c-0.047,0.173-0.11,0.337-0.187,0.497
	c-0.077,0.16-0.163,0.308-0.258,0.444c-0.095,0.135-0.196,0.228-0.302,0.274l-1.314-1.35c-0.244,0.012-0.47,0.041-0.679,0.089
	c-0.208,0.046-0.392,0.124-0.549,0.23c-0.157,0.105-0.277,0.244-0.365,0.415c-0.088,0.171-0.131,0.386-0.131,0.646
	c0,0.306,0.075,0.568,0.229,0.786c0.152,0.219,0.342,0.424,0.571,0.618c0.228,0.194,0.474,0.383,0.738,0.567
	c0.263,0.183,0.509,0.39,0.737,0.621c0.229,0.231,0.418,0.497,0.571,0.799c0.152,0.303,0.229,0.66,0.229,1.075
	c0,0.426-0.098,0.805-0.293,1.136c-0.196,0.331-0.462,0.613-0.799,0.844c-0.338,0.231-0.728,0.406-1.173,0.525
	c-0.444,0.119-0.915,0.178-1.413,0.178c-0.497,0-0.95-0.051-1.359-0.152c-0.408-0.1-0.731-0.228-0.968-0.382
	c0.059-0.308,0.131-0.607,0.214-0.896c0.083-0.29,0.255-0.559,0.515-0.809l1.598,1.457c0.249,0,0.495-0.029,0.737-0.089
	c0.242-0.059,0.462-0.153,0.657-0.283c0.196-0.13,0.356-0.288,0.48-0.477C143.427,54.628,143.494,54.398,143.506,54.126z"/>
<path fill="#FFFFFF" d="M153.756,55.291c0.497,0.07,0.971,0.212,1.421,0.426l-0.089,0.515h-4.512l0.088-0.515
	c0.214-0.094,0.438-0.178,0.675-0.249c0.237-0.07,0.473-0.13,0.71-0.176l2.22-10.534c-0.237-0.071-0.456-0.142-0.657-0.214
	c-0.201-0.07-0.379-0.147-0.533-0.231l0.124-0.515h8.331c-0.107,0.462-0.227,0.935-0.359,1.421
	c-0.132,0.486-0.288,0.971-0.467,1.456h-0.467l-0.306-1.953h-3.961l-1.065,5.064h3.091l0.971-1.316h0.449
	c-0.06,0.533-0.159,1.129-0.296,1.786c-0.137,0.657-0.29,1.257-0.458,1.803h-0.449l-0.395-1.368h-3.109L153.756,55.291z"/>
<path fill="#FFFFFF" d="M161.268,52.928c0-0.628,0.098-1.283,0.293-1.964c0.194-0.681,0.492-1.306,0.893-1.873
	c0.4-0.569,0.901-1.036,1.503-1.404c0.601-0.367,1.302-0.551,2.104-0.551c0.919,0,1.612,0.285,2.078,0.853
	c0.466,0.568,0.699,1.41,0.699,2.522c0,0.782-0.112,1.531-0.336,2.247c-0.224,0.717-0.536,1.348-0.937,1.891
	c-0.4,0.545-0.884,0.981-1.449,1.306c-0.566,0.326-1.191,0.489-1.874,0.489c-0.908,0-1.63-0.294-2.167-0.879
	C161.537,54.979,161.268,54.101,161.268,52.928z M165.728,47.918c-0.58,0.012-1.054,0.201-1.421,0.566
	c-0.367,0.365-0.658,0.82-0.871,1.362c-0.213,0.542-0.361,1.127-0.444,1.751s-0.124,1.196-0.124,1.715
	c0,0.695,0.154,1.261,0.462,1.697c0.307,0.437,0.723,0.655,1.243,0.655c0.415,0,0.784-0.156,1.111-0.468
	c0.326-0.313,0.604-0.725,0.835-1.239c0.231-0.513,0.408-1.094,0.533-1.743c0.125-0.648,0.187-1.302,0.187-1.962
	c0-0.695-0.122-1.255-0.364-1.679C166.631,48.149,166.248,47.93,165.728,47.918z"/>
<path fill="#FFFFFF" d="M175.106,48.434c-0.308,0.119-0.655,0.418-1.038,0.898c-0.385,0.48-0.725,1.127-1.022,1.945l-1.065,4.956
	h-1.528l1.652-7.852l-1.084-0.16v-0.444c0.403-0.189,0.823-0.334,1.261-0.435c0.438-0.101,0.835-0.169,1.19-0.205l0.354,0.214
	l-0.497,2.363h0.071c0.342-0.782,0.763-1.406,1.262-1.873c0.497-0.468,1.03-0.702,1.598-0.702c0.154,0,0.308,0.015,0.462,0.044
	c0.155,0.03,0.301,0.087,0.444,0.169c0,0.106-0.02,0.246-0.055,0.418c-0.035,0.171-0.087,0.347-0.152,0.524
	c-0.065,0.178-0.134,0.347-0.212,0.506c-0.078,0.16-0.156,0.283-0.241,0.364L175.106,48.434z"/>
<path fill="#FFFFFF" d="M184.184,56.232h-3.997l0.106-0.515c0.462-0.19,0.924-0.331,1.385-0.426l7.017-11.707h0.462l2.007,11.707
	c0.214,0.046,0.429,0.103,0.65,0.168c0.219,0.065,0.418,0.152,0.594,0.258l-0.089,0.515h-4.512l0.089-0.515
	c0.532-0.201,1.054-0.344,1.563-0.426l-0.533-3.252h-4.175l-1.901,3.252c0.508,0.07,0.983,0.212,1.421,0.426L184.184,56.232z
	 M185.267,51.115h3.518l-0.568-3.766l-0.036-1.528h-0.036l-0.71,1.563L185.267,51.115z"/>
<path fill="#FFFFFF" d="M213.317,44.756c-0.237-0.047-0.484-0.106-0.737-0.178c-0.255-0.07-0.484-0.16-0.684-0.267l0.106-0.515
	h3.908l-0.107,0.515c-0.224,0.119-0.452,0.208-0.683,0.267c-0.231,0.06-0.46,0.119-0.684,0.178l-5.4,11.475l-1.137,0.214
	l-0.817-9.663l-4.814,9.451l-1.101,0.214l-0.657-11.689c-0.462-0.106-0.883-0.255-1.262-0.444l0.107-0.515h4.583l-0.106,0.515
	c-0.237,0.096-0.484,0.178-0.737,0.249c-0.255,0.07-0.525,0.135-0.809,0.196l0.231,7.194l-0.053,2.309h0.036l1.083-2.344l4.14-8.119
	h0.621l0.746,8.119l0.089,2.309h0.036l0.942-2.345L213.317,44.756z"/>
<path fill="#FFFFFF" d="M220.368,54.651c-0.107,0.224-0.262,0.443-0.462,0.657c-0.201,0.214-0.439,0.405-0.712,0.578
	c-0.272,0.171-0.58,0.308-0.924,0.408c-0.344,0.101-0.71,0.152-1.101,0.152c-0.983,0-1.738-0.283-2.265-0.845
	c-0.527-0.561-0.791-1.341-0.791-2.336c0-0.842,0.119-1.634,0.356-2.381c0.237-0.746,0.568-1.396,0.995-1.953
	c0.426-0.556,0.943-0.994,1.554-1.314c0.611-0.32,1.288-0.481,2.034-0.481c0.568,0,1.057,0.145,1.466,0.436
	c0.408,0.29,0.613,0.719,0.613,1.288c0,0.84-0.418,1.504-1.252,1.989c-0.835,0.486-2.183,0.799-4.04,0.942
	c-0.047,0.201-0.08,0.397-0.098,0.587c-0.018,0.19-0.026,0.372-0.026,0.551c0,0.71,0.18,1.29,0.542,1.74
	c0.361,0.45,0.89,0.675,1.589,0.675c0.224,0,0.447-0.036,0.666-0.107c0.219-0.07,0.427-0.16,0.623-0.265
	c0.196-0.107,0.373-0.219,0.532-0.338c0.16-0.119,0.299-0.224,0.418-0.319L220.368,54.651z M218.503,47.918
	c-0.509,0.012-0.983,0.249-1.421,0.712c-0.438,0.463-0.812,1.257-1.119,2.38c1.15-0.035,2.042-0.231,2.682-0.588
	c0.639-0.358,0.96-0.853,0.96-1.485c0-0.246-0.073-0.474-0.222-0.685C219.235,48.042,218.941,47.93,218.503,47.918z"/>
<path fill="#FFFFFF" d="M224.666,44.117l-1.261-0.16v-0.444c0.165-0.07,0.358-0.142,0.577-0.214c0.219-0.07,0.45-0.139,0.693-0.203
	c0.242-0.065,0.483-0.119,0.72-0.16c0.237-0.042,0.45-0.063,0.638-0.063l0.356,0.196l-2.451,12.168h1.296v0.462
	c-0.237,0.19-0.524,0.344-0.862,0.462c-0.337,0.119-0.666,0.178-0.986,0.178c-0.344,0-0.595-0.077-0.755-0.231
	c-0.16-0.154-0.239-0.331-0.239-0.532c0-0.237,0.018-0.468,0.053-0.693c0.036-0.226,0.083-0.474,0.142-0.746L224.666,44.117z"/>
<path fill="#FFFFFF" d="M229.694,44.117l-1.261-0.16v-0.444c0.165-0.07,0.358-0.142,0.577-0.214c0.219-0.07,0.45-0.139,0.693-0.203
	c0.242-0.065,0.482-0.119,0.72-0.16c0.237-0.042,0.45-0.063,0.638-0.063l0.356,0.196l-2.451,12.168h1.296v0.462
	c-0.237,0.19-0.524,0.344-0.862,0.462c-0.337,0.119-0.666,0.178-0.986,0.178c-0.344,0-0.595-0.077-0.755-0.231
	c-0.16-0.154-0.239-0.331-0.239-0.532c0-0.237,0.018-0.468,0.053-0.693c0.036-0.226,0.082-0.474,0.142-0.746L229.694,44.117z"/>
<path fill="#FFFFFF" d="M233.139,50.69h5.009l-0.231,1.101h-5.027L233.139,50.69z"/>
<path fill="#FFFFFF" d="M242.287,55.291c0.52,0.094,0.988,0.237,1.403,0.426l-0.089,0.515h-4.672l0.089-0.515
	c0.285-0.119,0.554-0.207,0.809-0.267c0.254-0.059,0.506-0.112,0.755-0.16l2.22-10.534c-0.285-0.071-0.542-0.142-0.773-0.214
	c-0.231-0.07-0.429-0.147-0.595-0.231l0.125-0.515h1.556c0.472,0,0.994-0.024,1.565-0.07c0.571-0.047,1.118-0.071,1.636-0.071
	c1.167,0,2.037,0.252,2.61,0.755c0.571,0.504,0.858,1.218,0.858,2.142c0,0.462-0.079,0.905-0.237,1.332
	c-0.158,0.426-0.381,0.812-0.668,1.154c-0.288,0.344-0.638,0.643-1.055,0.898c-0.416,0.254-0.888,0.447-1.415,0.577
	c0.344,0.805,0.72,1.606,1.127,2.398c0.408,0.794,0.832,1.581,1.271,2.363l0.835,0.515l-0.089,0.444h-2.025l-0.604-0.497
	c-0.249-0.415-0.47-0.823-0.666-1.225c-0.196-0.402-0.372-0.805-0.533-1.208c-0.16-0.403-0.301-0.817-0.426-1.244
	c-0.125-0.426-0.239-0.871-0.347-1.332h-1.705L242.287,55.291z M245.751,44.579c-0.273,0-0.506,0.009-0.702,0.027
	c-0.196,0.018-0.376,0.038-0.542,0.062l-1.101,5.276h1.261c0.628,0.012,1.158-0.082,1.59-0.283c0.431-0.201,0.782-0.469,1.047-0.805
	c0.267-0.336,0.462-0.717,0.587-1.142c0.125-0.425,0.187-0.862,0.187-1.311c0.012-0.637-0.169-1.1-0.542-1.39
	C247.163,44.723,246.567,44.579,245.751,44.579z"/>
<path fill="#FFFFFF" d="M257.493,54.651c-0.107,0.224-0.262,0.443-0.462,0.657c-0.201,0.214-0.439,0.405-0.712,0.578
	c-0.272,0.171-0.58,0.308-0.924,0.408c-0.344,0.101-0.71,0.152-1.101,0.152c-0.983,0-1.738-0.283-2.265-0.845
	c-0.527-0.561-0.791-1.341-0.791-2.336c0-0.842,0.119-1.634,0.356-2.381c0.237-0.746,0.568-1.396,0.995-1.953
	c0.426-0.556,0.943-0.994,1.554-1.314c0.611-0.32,1.288-0.481,2.034-0.481c0.568,0,1.057,0.145,1.466,0.436
	c0.408,0.29,0.613,0.719,0.613,1.288c0,0.84-0.418,1.504-1.252,1.989c-0.835,0.486-2.183,0.799-4.04,0.942
	c-0.047,0.201-0.08,0.397-0.098,0.587c-0.018,0.19-0.026,0.372-0.026,0.551c0,0.71,0.18,1.29,0.542,1.74
	c0.361,0.45,0.89,0.675,1.589,0.675c0.224,0,0.447-0.036,0.666-0.107c0.219-0.07,0.427-0.16,0.623-0.265
	c0.196-0.107,0.373-0.219,0.532-0.338c0.16-0.119,0.299-0.224,0.418-0.319L257.493,54.651z M255.627,47.918
	c-0.509,0.012-0.983,0.249-1.421,0.712c-0.438,0.463-0.812,1.257-1.119,2.38c1.15-0.035,2.042-0.231,2.682-0.588
	c0.639-0.358,0.96-0.853,0.96-1.485c0-0.246-0.073-0.474-0.222-0.685C256.359,48.042,256.065,47.93,255.627,47.918z"/>
<path fill="#FFFFFF" d="M264.865,52.751c-0.155,0.426-0.346,0.858-0.577,1.296c-0.231,0.438-0.497,0.835-0.8,1.189
	c-0.301,0.356-0.636,0.646-1.003,0.871c-0.367,0.226-0.758,0.338-1.173,0.338c-1.231,0-1.846-0.894-1.846-2.682
	c0-0.83,0.119-1.638,0.354-2.426c0.237-0.787,0.58-1.489,1.03-2.105s0.999-1.111,1.644-1.483c0.646-0.372,1.377-0.559,2.193-0.559
	c0.296,0,0.533,0.026,0.712,0.079c0.178,0.054,0.39,0.133,0.639,0.239c0.472-0.249,0.97-0.372,1.492-0.372l-1.599,8.101h1.296v0.453
	c-0.237,0.192-0.52,0.349-0.853,0.469c-0.332,0.12-0.657,0.18-0.977,0.18c-0.344,0-0.59-0.073-0.737-0.221
	c-0.149-0.149-0.222-0.306-0.222-0.472c0-0.212,0.041-0.561,0.125-1.047c0.083-0.486,0.207-1.101,0.373-1.848L264.865,52.751
	L264.865,52.751z M262.059,55.344c0.319,0,0.638-0.151,0.958-0.454s0.623-0.666,0.906-1.091c0.285-0.425,0.538-0.867,0.763-1.328
	c0.226-0.461,0.403-0.845,0.533-1.152l0.568-3.029c-0.166-0.119-0.326-0.201-0.48-0.249c-0.155-0.047-0.367-0.071-0.639-0.071
	c-0.546,0-1.038,0.169-1.483,0.505c-0.444,0.337-0.823,0.771-1.137,1.303c-0.313,0.531-0.556,1.122-0.728,1.772
	c-0.173,0.65-0.258,1.288-0.258,1.914c0,0.602,0.073,1.067,0.222,1.391C261.433,55.181,261.691,55.344,262.059,55.344z"/>
<path fill="#FFFFFF" d="M274.51,52.751c-0.155,0.426-0.349,0.858-0.587,1.296c-0.237,0.438-0.506,0.835-0.808,1.189
	c-0.303,0.356-0.634,0.646-0.995,0.871c-0.361,0.226-0.749,0.338-1.163,0.338c-1.231,0-1.848-0.899-1.848-2.701
	c0-0.84,0.119-1.654,0.356-2.443c0.237-0.787,0.58-1.485,1.03-2.096c0.45-0.609,0.995-1.098,1.635-1.466
	c0.638-0.367,1.367-0.55,2.185-0.55c0.308,0,0.538,0.021,0.693,0.062c0.155,0.041,0.349,0.114,0.586,0.222l0.675-3.358l-1.244-0.16
	v-0.444c0.178-0.07,0.373-0.139,0.587-0.203c0.212-0.065,0.435-0.125,0.666-0.178c0.231-0.052,0.465-0.104,0.701-0.151
	c0.237-0.047,0.456-0.084,0.658-0.107l0.372,0.142l-2.434,12.221h1.296v0.452c-0.237,0.192-0.522,0.349-0.853,0.469
	c-0.331,0.121-0.658,0.18-0.977,0.18c-0.344,0-0.59-0.073-0.737-0.221c-0.148-0.149-0.222-0.306-0.222-0.472
	c0-0.212,0.041-0.561,0.124-1.047c0.084-0.486,0.207-1.101,0.374-1.848h-0.073v0.003H274.51z M271.702,55.344
	c0.32,0,0.639-0.151,0.96-0.454c0.321-0.303,0.623-0.666,0.906-1.091c0.285-0.425,0.538-0.867,0.763-1.328
	c0.226-0.461,0.402-0.845,0.533-1.152l0.568-3.029c-0.178-0.119-0.34-0.198-0.489-0.239c-0.147-0.041-0.358-0.068-0.63-0.08
	c-0.568,0.012-1.078,0.187-1.528,0.524c-0.45,0.336-0.83,0.768-1.137,1.293c-0.308,0.526-0.542,1.114-0.701,1.763
	c-0.16,0.65-0.239,1.288-0.239,1.914c0,0.602,0.073,1.067,0.222,1.391C271.079,55.181,271.336,55.344,271.702,55.344z"/>
<path fill="#FFFFFF" d="M284.616,43.797h4.868l-0.124,0.515c-0.296,0.107-0.595,0.198-0.898,0.275
	c-0.301,0.077-0.6,0.133-0.896,0.169l-2.221,10.551h4.068l1.652-2.86h0.462c-0.024,0.249-0.055,0.536-0.089,0.862
	c-0.036,0.326-0.08,0.664-0.133,1.013s-0.112,0.689-0.178,1.022c-0.065,0.331-0.133,0.628-0.205,0.888h-8.935l0.089-0.515
	c0.32-0.13,0.604-0.224,0.853-0.285c0.249-0.06,0.485-0.107,0.71-0.142l2.22-10.534c-0.557-0.106-1.013-0.255-1.369-0.444
	L284.616,43.797z"/>
<path fill="#FFFFFF" d="M293.25,48.22v-0.444c0.178-0.07,0.378-0.144,0.604-0.222c0.224-0.075,0.456-0.144,0.693-0.203
	c0.237-0.06,0.462-0.109,0.675-0.151c0.212-0.041,0.402-0.063,0.568-0.063l0.32,0.214l-1.67,7.886h1.314v0.462
	c-0.249,0.19-0.538,0.344-0.871,0.462c-0.331,0.119-0.657,0.178-0.977,0.178c-0.344,0-0.589-0.077-0.737-0.231
	c-0.149-0.154-0.222-0.331-0.222-0.532c0-0.237,0.019-0.468,0.055-0.693c0.035-0.226,0.083-0.474,0.142-0.746l1.243-5.738
	L293.25,48.22z M294.687,44.278c0-0.308,0.094-0.551,0.285-0.728c0.19-0.178,0.438-0.267,0.746-0.267
	c0.331,0,0.592,0.089,0.782,0.267c0.19,0.178,0.285,0.421,0.285,0.728c0,0.296-0.094,0.527-0.285,0.693
	c-0.19,0.166-0.45,0.249-0.782,0.249c-0.308,0-0.556-0.082-0.746-0.249S294.687,44.574,294.687,44.278z"/>
<path fill="#FFFFFF" d="M299.324,48.274h-1.296v-0.477c0.237-0.135,0.488-0.255,0.755-0.359c0.267-0.104,0.518-0.187,0.755-0.247
	l0.125-0.623c0.155-0.734,0.364-1.341,0.63-1.82c0.267-0.481,0.578-0.858,0.933-1.137c0.354-0.277,0.746-0.47,1.173-0.577
	c0.426-0.107,0.883-0.16,1.368-0.16c0.201,0,0.44,0.024,0.719,0.071c0.278,0.047,0.512,0.119,0.701,0.212
	c-0.024,0.262-0.086,0.53-0.187,0.809c-0.101,0.279-0.269,0.518-0.506,0.719l-1.35-1.1c-0.214,0.059-0.408,0.124-0.587,0.196
	c-0.176,0.07-0.347,0.203-0.506,0.399c-0.16,0.196-0.31,0.472-0.452,0.826c-0.142,0.356-0.278,0.842-0.408,1.457l-0.178,0.888h1.973
	c0.059,0.308,0,0.616-0.178,0.924h-1.973l-1.136,7.208c-0.131,0.838-0.351,1.536-0.658,2.09c-0.308,0.554-0.636,1.003-0.986,1.346
	c-0.349,0.343-0.689,0.596-1.022,0.762c-0.331,0.165-0.587,0.271-0.764,0.318l-0.16-0.39c0.142-0.071,0.315-0.198,0.515-0.381
	c0.201-0.183,0.4-0.428,0.595-0.735c0.196-0.307,0.378-0.682,0.551-1.124c0.171-0.443,0.305-0.96,0.4-1.549L299.324,48.274z"/>
<path fill="#FFFFFF" d="M309.379,54.651c-0.107,0.224-0.262,0.443-0.462,0.657c-0.201,0.214-0.439,0.405-0.712,0.578
	c-0.272,0.171-0.58,0.308-0.924,0.408c-0.344,0.101-0.71,0.152-1.101,0.152c-0.983,0-1.738-0.283-2.265-0.845
	c-0.527-0.561-0.791-1.341-0.791-2.336c0-0.842,0.119-1.634,0.356-2.381c0.237-0.746,0.568-1.396,0.995-1.953
	c0.426-0.556,0.944-0.994,1.554-1.314c0.611-0.32,1.288-0.481,2.034-0.481c0.568,0,1.057,0.145,1.466,0.436
	c0.408,0.29,0.613,0.719,0.613,1.288c0,0.84-0.418,1.504-1.252,1.989c-0.835,0.485-2.183,0.799-4.04,0.942
	c-0.047,0.201-0.08,0.397-0.098,0.587c-0.018,0.19-0.026,0.372-0.026,0.551c0,0.71,0.18,1.29,0.542,1.74
	c0.361,0.45,0.89,0.675,1.589,0.675c0.224,0,0.447-0.036,0.666-0.107c0.219-0.07,0.427-0.16,0.623-0.265
	c0.196-0.107,0.372-0.219,0.532-0.338c0.16-0.119,0.299-0.224,0.418-0.319L309.379,54.651z M307.513,47.918
	c-0.509,0.012-0.983,0.249-1.421,0.712c-0.438,0.463-0.812,1.257-1.119,2.38c1.15-0.035,2.042-0.231,2.682-0.588
	c0.639-0.358,0.96-0.853,0.96-1.485c0-0.246-0.073-0.474-0.222-0.685C308.244,48.042,307.95,47.93,307.513,47.918z"/>
</svg>
